<svg width="10" height="12" viewBox="0 0 10 12" fill="none" xmlns="http://www.w3.org/2000/svg">
<path d="M6.28638 1.19521L6.81205 0.319016C6.87184 0.219229 6.83963 0.0899687 6.73985 0.0301806C6.63985 -0.0298179 6.5108 0.00239183 6.45101 0.102389L5.89629 1.027C5.56598 0.909528 5.2123 0.842161 4.84221 0.842161C4.47211 0.842161 4.11843 0.909528 3.78813 1.027L3.2334 0.102389C3.17361 0.00239183 3.04435 -0.0296074 2.94457 0.0301806C2.84478 0.0899687 2.81257 0.219229 2.87236 0.319016L3.39803 1.19521C2.38184 1.72046 1.68439 2.77938 1.68439 4.00019C1.68439 4.11661 1.7787 4.21071 1.89491 4.21071H7.7895C7.90571 4.21071 8.00003 4.11661 8.00003 4.00019C7.99981 2.77959 7.30257 1.72067 6.28638 1.19521ZM2.11343 3.78967C2.22122 2.37855 3.40392 1.26341 4.84221 1.26341C6.28049 1.26341 7.4632 2.37855 7.57098 3.78967H2.11343Z" fill="#007077"/>
<path d="M6.31101 2.39243H6.03354C5.95691 2.39243 5.89481 2.45453 5.89481 2.53116V2.80863C5.89481 2.88526 5.95691 2.94736 6.03354 2.94736H6.31122C6.38785 2.94736 6.44995 2.88526 6.44995 2.80863V2.53116C6.44995 2.45453 6.38764 2.39243 6.31101 2.39243Z" fill="#007077"/>
<path d="M3.65065 2.39243H3.37297C3.29634 2.39243 3.23424 2.45453 3.23424 2.53116V2.80863C3.23424 2.88526 3.29634 2.94736 3.37297 2.94736H3.65065C3.72728 2.94736 3.78938 2.88526 3.78938 2.80863V2.53116C3.78938 2.45453 3.72728 2.39243 3.65065 2.39243Z" fill="#007077"/>
<path d="M7.78929 4.42123H1.89469C1.77849 4.42123 1.68417 4.51534 1.68417 4.63176V8.87818C1.68417 9.4388 2.14079 9.89479 2.70183 9.89479H2.9473V11.1592C2.9473 11.6227 3.32498 12 3.78939 12C4.2538 12 4.63147 11.6227 4.63147 11.1592V9.89479H5.05251V11.1592C5.05251 11.6227 5.43019 12 5.8946 12C6.35901 12 6.73668 11.6227 6.73668 11.1592V9.89479H6.98215C7.5434 9.89479 7.99981 9.4388 7.99981 8.87818V4.63176C7.99981 4.51534 7.90571 4.42123 7.78929 4.42123ZM7.57877 8.87818C7.57877 9.20659 7.3112 9.47374 6.98215 9.47374H6.52616C6.40996 9.47374 6.31564 9.56785 6.31564 9.68427V11.1592C6.31564 11.3908 6.1268 11.579 5.8946 11.579C5.66239 11.579 5.47356 11.3905 5.47356 11.1592V9.68427C5.47356 9.56785 5.37924 9.47374 5.26304 9.47374H4.42095C4.30474 9.47374 4.21043 9.56785 4.21043 9.68427V11.1592C4.21043 11.3908 4.02159 11.579 3.78939 11.579C3.55718 11.579 3.36834 11.3905 3.36834 11.1592V9.68427C3.36834 9.56785 3.27403 9.47374 3.15782 9.47374H2.70204C2.373 9.47374 2.10522 9.20638 2.10522 8.87818V4.84228H7.57877V8.87818Z" fill="#007077"/>
<path d="M8.94715 4.42123C8.54085 4.42123 8.21033 4.75217 8.21033 5.1589V8.10452C8.21033 8.51124 8.54085 8.84218 8.94715 8.84218C9.35346 8.84218 9.68398 8.51124 9.68398 8.10452V5.1589C9.68398 4.75217 9.35346 4.42123 8.94715 4.42123ZM9.26293 8.10452C9.26293 8.27904 9.12125 8.42114 8.94715 8.42114C8.77305 8.42114 8.63137 8.27904 8.63137 8.10452V5.1589C8.63137 4.98438 8.77305 4.84228 8.94715 4.84228C9.12125 4.84228 9.26293 4.98438 9.26293 5.1589V8.10452Z" fill="#007077"/>
<path d="M0.736825 4.42123C0.330518 4.42123 0 4.75217 0 5.1589V8.10452C0 8.51124 0.330518 8.84218 0.736825 8.84218C1.14313 8.84218 1.47365 8.51124 1.47365 8.10452V5.1589C1.47365 4.75217 1.14313 4.42123 0.736825 4.42123ZM1.05261 8.10452C1.05261 8.27904 0.910926 8.42114 0.736825 8.42114C0.562723 8.42114 0.421043 8.27904 0.421043 8.10452V5.1589C0.421043 4.98438 0.562723 4.84228 0.736825 4.84228C0.910926 4.84228 1.05261 4.98438 1.05261 5.1589V8.10452Z" fill="#007077"/>
</svg>
