<svg width="14" height="14" viewBox="0 0 14 14" fill="none" xmlns="http://www.w3.org/2000/svg">
<path d="M13 4.14286V9.85714C13 11.5929 11.5929 13 9.85714 13H4.14286C2.40714 13 1 11.5929 1 9.85714V4.14286C1 2.40714 2.40714 1 4.14286 1H9.85714C11.5929 1 13 2.40714 13 4.14286Z" stroke="#B81515" stroke-miterlimit="10"/>
<path d="M2.82686 5.35029C2.82686 5.162 2.97515 5.01886 3.17601 5.01886C3.37686 5.01886 3.52515 5.162 3.52515 5.35029C3.52515 5.536 3.37686 5.67915 3.17601 5.67915C2.97515 5.67915 2.82686 5.536 2.82686 5.35029ZM2.90715 6.15886H3.44458V8.89343H2.90715V6.15886ZM7.84115 7.08029C7.84115 8.24543 7.20343 8.98115 6.15372 8.98115C5.10143 8.98115 4.46115 8.248 4.46115 7.08029C4.46115 5.91 5.11401 5.18172 6.15372 5.18172C7.19829 5.182 7.84115 5.91257 7.84115 7.08029ZM5.03629 7.08029C5.03629 7.91657 5.45829 8.45629 6.15372 8.45629C6.84172 8.45629 7.26629 7.91629 7.26629 7.08029C7.26629 6.23915 6.842 5.70657 6.15372 5.70657C5.47058 5.70686 5.03629 6.23915 5.03629 7.08029ZM8.98886 7.91915C9.03658 8.26315 9.37315 8.48172 9.85772 8.48172C10.3097 8.48172 10.6411 8.24829 10.6411 7.92686C10.6411 7.65057 10.4303 7.48486 9.95058 7.372L9.48343 7.25886C8.828 7.10572 8.52915 6.78915 8.52915 6.25686C8.52915 5.61143 9.05658 5.182 9.84743 5.182C10.5831 5.182 11.1206 5.61143 11.1531 6.22172H10.6057C10.5529 5.88772 10.2617 5.67943 9.83972 5.67943C9.39515 5.67943 9.09886 5.89286 9.09886 6.21943C9.09886 6.478 9.28972 6.62629 9.76172 6.73686L10.1609 6.83486C10.9043 7.008 11.2106 7.30943 11.2106 7.85429C11.2106 8.54743 10.6731 8.98172 9.81429 8.98172C9.01086 8.98172 8.47086 8.56743 8.43058 7.91943H8.98886V7.91915Z" fill="#B81515"/>
</svg>
