<svg width="11" height="12" viewBox="0 0 11 12" fill="none" xmlns="http://www.w3.org/2000/svg">
<path d="M4.9408 11.9999C4.82683 12.0004 4.71745 11.955 4.63736 11.8739C4.46993 11.7063 4.46993 11.4347 4.63736 11.2671L5.67361 10.2366L4.52859 9.09152C4.36115 8.92388 4.36115 8.6523 4.52859 8.48466C4.69943 8.31961 4.97033 8.31961 5.14118 8.48466L6.58391 9.92739C6.75201 10.097 6.75201 10.3704 6.58391 10.54L5.24423 11.8739C5.16531 11.9568 5.05516 12.0025 4.9408 11.9999Z" fill="#29016B"/>
<path fill-rule="evenodd" clip-rule="evenodd" d="M2.29006 3.29196C2.29006 5.11005 3.76392 6.58391 5.58201 6.58391C7.3988 6.58076 8.87082 5.10875 8.87397 3.29196C8.87397 1.47386 7.40011 0 5.58201 0C3.76392 0 2.29006 1.47386 2.29006 3.29196ZM3.14883 3.29196C3.14883 1.94815 4.23821 0.858771 5.58202 0.858771C6.92452 0.861919 8.01205 1.94945 8.0152 3.29196C8.0152 4.63577 6.92583 5.72514 5.58202 5.72514C4.23821 5.72514 3.14883 4.63577 3.14883 3.29196Z" fill="#29016B"/>
<path d="M0.429386 11.164C0.192242 11.164 0 10.9718 0 10.7346C0 7.96797 2.24283 5.72514 5.0095 5.72514H6.15453C6.30793 5.72514 6.44968 5.80698 6.52639 5.93984C6.60309 6.07269 6.60309 6.23637 6.52639 6.36922C6.44968 6.50207 6.30793 6.58391 6.15453 6.58391H5.0095C2.71842 6.58707 0.861925 8.44357 0.858771 10.7346C0.855688 10.9705 0.66524 11.1609 0.429386 11.164Z" fill="#29016B"/>
<path d="M10.54 10.5915H8.21558C7.97844 10.5915 7.7862 10.3993 7.7862 10.1621C7.7862 9.92498 7.97844 9.73274 8.21558 9.73274H10.54C10.7771 9.73274 10.9694 9.92498 10.9694 10.1621C10.9694 10.3993 10.7771 10.5915 10.54 10.5915Z" fill="#29016B"/>
</svg>
