<svg width="136" height="59" viewBox="0 0 136 59" fill="none" xmlns="http://www.w3.org/2000/svg">
<path d="M7.62939e-06 19.3547C7.62939e-06 24.5229 7.62939e-06 38.7093 7.62939e-06 38.7093C7.62939e-06 38.7093 13.8336 38.7093 19.3547 38.7093C30.044 38.7093 38.7094 30.044 38.7094 19.3547C38.7094 8.66538 30.044 0 19.3547 0C8.66539 0 7.62939e-06 8.66538 7.62939e-06 19.3547Z" fill="#FF8906" fill-opacity="0.8"/>
<path d="M58.0004 38.774C58.0004 43.9423 58.0004 58.1287 58.0004 58.1287C58.0004 58.1287 44.1667 58.1287 38.6457 58.1287C27.9564 58.1287 19.291 49.4633 19.291 38.774C19.291 28.0848 27.9564 19.4194 38.6457 19.4194C49.335 19.4194 58.0004 28.0848 58.0004 38.774Z" fill="#FF8906" fill-opacity="0.8"/>
<path d="M73.28 38.416C71.3907 38.416 69.822 37.7747 68.574 36.492C67.3433 35.1747 66.728 33.554 66.728 31.63C66.728 29.6713 67.3433 28.0507 68.574 26.768C69.822 25.4853 71.3907 24.844 73.28 24.844C74.58 24.844 75.7153 25.1733 76.686 25.832C77.6567 26.4733 78.3847 27.366 78.87 28.51L76.686 29.42C76.01 27.8253 74.8227 27.028 73.124 27.028C72.032 27.028 71.0873 27.47 70.29 28.354C69.51 29.238 69.12 30.33 69.12 31.63C69.12 32.93 69.51 34.022 70.29 34.906C71.0873 35.79 72.032 36.232 73.124 36.232C74.8747 36.232 76.1053 35.4347 76.816 33.84L78.948 34.75C78.48 35.894 77.7433 36.7953 76.738 37.454C75.75 38.0953 74.5973 38.416 73.28 38.416ZM80.185 31.63C80.185 29.6713 80.8004 28.0507 82.031 26.768C83.279 25.4853 84.8477 24.844 86.737 24.844C88.6264 24.844 90.1864 25.4853 91.417 26.768C92.665 28.0507 93.289 29.6713 93.289 31.63C93.289 33.606 92.665 35.2267 91.417 36.492C90.1864 37.7747 88.6264 38.416 86.737 38.416C84.8477 38.416 83.279 37.7747 82.031 36.492C80.8004 35.2093 80.185 33.5887 80.185 31.63ZM82.577 31.63C82.577 32.9993 82.9757 34.1087 83.773 34.958C84.5704 35.8073 85.5584 36.232 86.737 36.232C87.9157 36.232 88.9037 35.8073 89.701 34.958C90.4984 34.1087 90.897 32.9993 90.897 31.63C90.897 30.278 90.4984 29.1773 89.701 28.328C88.8864 27.4613 87.8984 27.028 86.737 27.028C85.5757 27.028 84.5877 27.4613 83.773 28.328C82.9757 29.1773 82.577 30.278 82.577 31.63ZM106.33 38H95.8779V19.384H98.2699V35.712H106.33V38ZM110.153 34.1C110.153 34.724 110.413 35.244 110.933 35.66C111.47 36.076 112.094 36.284 112.805 36.284C113.81 36.284 114.703 35.9113 115.483 35.166C116.28 34.4207 116.679 33.5453 116.679 32.54C115.934 31.9507 114.894 31.656 113.559 31.656C112.588 31.656 111.774 31.89 111.115 32.358C110.474 32.826 110.153 33.4067 110.153 34.1ZM113.247 24.844C115.015 24.844 116.41 25.3207 117.433 26.274C118.456 27.21 118.967 28.5013 118.967 30.148V38H116.679V36.232H116.575C115.587 37.688 114.27 38.416 112.623 38.416C111.219 38.416 110.04 38 109.087 37.168C108.151 36.336 107.683 35.296 107.683 34.048C107.683 32.7307 108.177 31.682 109.165 30.902C110.17 30.122 111.505 29.732 113.169 29.732C114.59 29.732 115.76 29.992 116.679 30.512V29.966C116.679 29.134 116.35 28.432 115.691 27.86C115.032 27.2707 114.261 26.976 113.377 26.976C112.042 26.976 110.985 27.5393 110.205 28.666L108.099 27.34C109.26 25.676 110.976 24.844 113.247 24.844ZM128.399 38.416C127.463 38.416 126.605 38.2167 125.825 37.818C125.062 37.4193 124.473 36.8907 124.057 36.232H123.953V38H121.665V19.384H124.057V25.26L123.953 27.028H124.057C124.473 26.3693 125.062 25.8407 125.825 25.442C126.605 25.0433 127.463 24.844 128.399 24.844C130.08 24.844 131.502 25.5027 132.663 26.82C133.859 28.1547 134.457 29.758 134.457 31.63C134.457 33.5193 133.859 35.1227 132.663 36.44C131.502 37.7573 130.08 38.416 128.399 38.416ZM128.009 36.232C129.153 36.232 130.115 35.7987 130.895 34.932C131.675 34.0827 132.065 32.982 132.065 31.63C132.065 30.2953 131.675 29.1947 130.895 28.328C130.115 27.4613 129.153 27.028 128.009 27.028C126.848 27.028 125.877 27.4613 125.097 28.328C124.334 29.1947 123.953 30.2953 123.953 31.63C123.953 32.982 124.334 34.0913 125.097 34.958C125.877 35.8073 126.848 36.232 128.009 36.232Z" fill="#414141"/>
</svg>
